<svg width="783" height="160" viewBox="0 0 783 160" fill="none" xmlns="http://www.w3.org/2000/svg">
<path d="M25.915 0.00448064H25.8702C25.3603 0.00448064 24.9442 0.421091 24.9442 0.931775V4.96797C24.9442 5.4697 25.3468 5.87287 25.8434 5.89079V5.89527C29.6548 6.01622 30.6927 7.33773 30.6927 11.3157V16.0507C30.6927 20.2347 29.5475 21.5294 25.2216 21.5294H12.5347C8.20886 21.5294 7.06366 20.2347 7.06366 16.0507V11.3112C7.06366 7.33773 8.10151 6.01622 11.9129 5.89079V5.88631C12.4095 5.87287 12.8121 5.4697 12.8121 4.96349V0.927295C12.8121 0.416611 12.3961 0 11.8861 0H11.8413C2.88541 0 0 2.8894 0 10.1151V17.2871C0 24.5128 2.88541 27.353 11.8413 27.353H25.9239C34.8799 27.353 37.7653 24.5128 37.7653 17.2871V10.1151C37.7563 2.89388 34.8709 0.00448064 25.915 0.00448064Z" fill="#F3F3F3"/>
<path d="M21.4998 0.00451452H16.2479C15.7469 0.00451452 15.3398 0.412165 15.3398 0.91389V15.4415C15.3398 15.9432 15.7469 16.3509 16.2479 16.3509H21.4998C22.0008 16.3509 22.4079 15.9432 22.4079 15.4415V0.90941C22.4079 0.412164 22.0008 0.00451452 21.4998 0.00451452Z" fill="#F3F3F3"/>
<path d="M25.915 88.1739H25.8702C25.3603 88.1739 24.9442 88.5905 24.9442 89.1012V93.1374C24.9442 93.6391 25.3468 94.0423 25.8434 94.0602V94.0647C29.6548 94.1856 30.6927 95.5072 30.6927 99.4851V104.22C30.6927 108.404 29.5475 109.699 25.2216 109.699H12.5347C8.20886 109.699 7.06366 108.404 7.06366 104.22V99.4806C7.06366 95.5071 8.10151 94.1856 11.9129 94.0602V94.0557C12.4095 94.0423 12.8121 93.6391 12.8121 93.1329V89.0967C12.8121 88.586 12.3961 88.1694 11.8861 88.1694H11.8413C2.88541 88.1694 0 91.0588 0 98.2846V105.457C0 112.682 2.88541 115.522 11.8413 115.522H25.9239C34.8799 115.522 37.7653 112.682 37.7653 105.457V98.2846C37.7563 91.0633 34.8709 88.1739 25.915 88.1739Z" fill="#F3F3F3"/>
<path d="M21.4998 88.1739H16.2479C15.7469 88.1739 15.3398 88.5816 15.3398 89.0833V103.611C15.3398 104.113 15.7469 104.52 16.2479 104.52H21.4998C22.0008 104.52 22.4079 104.113 22.4079 103.611V89.0788C22.4079 88.5816 22.0008 88.1739 21.4998 88.1739Z" fill="#F3F3F3"/>
<path d="M150.121 0.00448064H150.076C149.566 0.00448064 149.15 0.421091 149.15 0.931775V4.96797C149.15 5.4697 149.553 5.87287 150.049 5.89079V5.89527C153.861 6.01622 154.898 7.33773 154.898 11.3157V16.0507C154.898 20.2347 153.753 21.5294 149.427 21.5294H136.741C132.415 21.5294 131.269 20.2347 131.269 16.0507V11.3112C131.269 7.33773 132.307 6.01622 136.119 5.89079V5.88631C136.615 5.87287 137.018 5.4697 137.018 4.96349V0.927295C137.018 0.416611 136.602 0 136.092 0H136.047C127.091 0 124.206 2.8894 124.206 10.1151V17.2871C124.206 24.5128 127.091 27.353 136.047 27.353H150.13C159.086 27.353 161.971 24.5128 161.971 17.2871V10.1151C161.962 2.89388 159.077 0.00448064 150.121 0.00448064Z" fill="#F3F3F3"/>
<path d="M145.706 0.00451452H140.454C139.953 0.00451452 139.546 0.412165 139.546 0.91389V15.4415C139.546 15.9432 139.953 16.3509 140.454 16.3509H145.706C146.207 16.3509 146.614 15.9432 146.614 15.4415V0.90941C146.614 0.412164 146.207 0.00451452 145.706 0.00451452Z" fill="#F3F3F3"/>
<path d="M150.121 88.1739H150.076C149.566 88.1739 149.15 88.5905 149.15 89.1012V93.1374C149.15 93.6391 149.553 94.0423 150.049 94.0602V94.0647C153.861 94.1856 154.898 95.5072 154.898 99.4851V104.22C154.898 108.404 153.753 109.699 149.427 109.699H136.741C132.415 109.699 131.269 108.404 131.269 104.22V99.4806C131.269 95.5071 132.307 94.1856 136.119 94.0602V94.0557C136.615 94.0423 137.018 93.6391 137.018 93.1329V89.0967C137.018 88.586 136.602 88.1694 136.092 88.1694H136.047C127.091 88.1694 124.206 91.0588 124.206 98.2846V105.457C124.206 112.682 127.091 115.522 136.047 115.522H150.13C159.086 115.522 161.971 112.682 161.971 105.457V98.2846C161.962 91.0633 159.077 88.1739 150.121 88.1739Z" fill="#F3F3F3"/>
<path d="M145.706 88.1739H140.454C139.953 88.1739 139.546 88.5816 139.546 89.0833V103.611C139.546 104.113 139.953 104.52 140.454 104.52H145.706C146.207 104.52 146.614 104.113 146.614 103.611V89.0788C146.614 88.5816 146.207 88.1739 145.706 88.1739Z" fill="#F3F3F3"/>
<path d="M522.738 0.00448064H522.693C522.183 0.00448064 521.767 0.421091 521.767 0.931775V4.96797C521.767 5.4697 522.17 5.87287 522.667 5.89079V5.89527C526.478 6.01622 527.516 7.33773 527.516 11.3157V16.0507C527.516 20.2347 526.371 21.5294 522.045 21.5294H509.358C505.032 21.5294 503.887 20.2347 503.887 16.0507V11.3112C503.887 7.33773 504.925 6.01622 508.736 5.89079V5.88631C509.233 5.87287 509.635 5.4697 509.635 4.96349V0.927295C509.635 0.416611 509.219 0 508.709 0H508.665C499.709 0 496.823 2.8894 496.823 10.1151V17.2871C496.823 24.5128 499.709 27.353 508.665 27.353H522.747C531.703 27.353 534.588 24.5128 534.588 17.2871V10.1151C534.579 2.89388 531.694 0.00448064 522.738 0.00448064Z" fill="#F3F3F3"/>
<path d="M518.323 0.00451452H513.071C512.57 0.00451452 512.163 0.412165 512.163 0.91389V15.4415C512.163 15.9432 512.57 16.3509 513.071 16.3509H518.323C518.824 16.3509 519.231 15.9432 519.231 15.4415V0.90941C519.231 0.412164 518.824 0.00451452 518.323 0.00451452Z" fill="#F3F3F3"/>
<path d="M522.738 88.1739H522.693C522.183 88.1739 521.767 88.5905 521.767 89.1012V93.1374C521.767 93.6391 522.17 94.0423 522.667 94.0602V94.0647C526.478 94.1856 527.516 95.5072 527.516 99.4851V104.22C527.516 108.404 526.371 109.699 522.045 109.699H509.358C505.032 109.699 503.887 108.404 503.887 104.22V99.4806C503.887 95.5071 504.925 94.1856 508.736 94.0602V94.0557C509.233 94.0423 509.635 93.6391 509.635 93.1329V89.0967C509.635 88.586 509.219 88.1694 508.709 88.1694H508.665C499.709 88.1694 496.823 91.0588 496.823 98.2846V105.457C496.823 112.682 499.709 115.522 508.665 115.522H522.747C531.703 115.522 534.588 112.682 534.588 105.457V98.2846C534.579 91.0633 531.694 88.1739 522.738 88.1739Z" fill="#F3F3F3"/>
<path d="M518.323 88.1739H513.071C512.57 88.1739 512.163 88.5816 512.163 89.0833V103.611C512.163 104.113 512.57 104.52 513.071 104.52H518.323C518.824 104.52 519.231 104.113 519.231 103.611V89.0788C519.231 88.5816 518.824 88.1739 518.323 88.1739Z" fill="#F3F3F3"/>
<path d="M336.429 0.00448064H336.385C335.875 0.00448064 335.459 0.421091 335.459 0.931775V4.96797C335.459 5.4697 335.861 5.87287 336.358 5.89079V5.89527C340.169 6.01622 341.207 7.33773 341.207 11.3157V16.0507C341.207 20.2347 340.062 21.5294 335.736 21.5294H323.049C318.723 21.5294 317.578 20.2347 317.578 16.0507V11.3112C317.578 7.33773 318.616 6.01622 322.427 5.89079V5.88631C322.924 5.87287 323.327 5.4697 323.327 4.96349V0.927295C323.327 0.416611 322.911 0 322.401 0H322.356C313.4 0 310.514 2.8894 310.514 10.1151V17.2871C310.514 24.5128 313.4 27.353 322.356 27.353H336.438C345.394 27.353 348.28 24.5128 348.28 17.2871V10.1151C348.271 2.89388 345.385 0.00448064 336.429 0.00448064Z" fill="#F3F3F3"/>
<path d="M332.014 0.00451452H326.762C326.261 0.00451452 325.854 0.412165 325.854 0.91389V15.4415C325.854 15.9432 326.261 16.3509 326.762 16.3509H332.014C332.515 16.3509 332.922 15.9432 332.922 15.4415V0.90941C332.922 0.412164 332.515 0.00451452 332.014 0.00451452Z" fill="#F3F3F3"/>
<path d="M336.429 88.1739H336.385C335.875 88.1739 335.459 88.5905 335.459 89.1012V93.1374C335.459 93.6391 335.861 94.0423 336.358 94.0602V94.0647C340.169 94.1856 341.207 95.5072 341.207 99.4851V104.22C341.207 108.404 340.062 109.699 335.736 109.699H323.049C318.723 109.699 317.578 108.404 317.578 104.22V99.4806C317.578 95.5071 318.616 94.1856 322.427 94.0602V94.0557C322.924 94.0423 323.327 93.6391 323.327 93.1329V89.0967C323.327 88.586 322.911 88.1694 322.401 88.1694H322.356C313.4 88.1694 310.514 91.0588 310.514 98.2846V105.457C310.514 112.682 313.4 115.522 322.356 115.522H336.438C345.394 115.522 348.28 112.682 348.28 105.457V98.2846C348.271 91.0633 345.385 88.1739 336.429 88.1739Z" fill="#F3F3F3"/>
<path d="M332.014 88.1739H326.762C326.261 88.1739 325.854 88.5816 325.854 89.0833V103.611C325.854 104.113 326.261 104.52 326.762 104.52H332.014C332.515 104.52 332.922 104.113 332.922 103.611V89.0788C332.922 88.5816 332.515 88.1739 332.014 88.1739Z" fill="#F3F3F3"/>
<path d="M709.047 0.00448064H709.002C708.492 0.00448064 708.076 0.421091 708.076 0.931775V4.96797C708.076 5.4697 708.479 5.87287 708.975 5.89079V5.89527C712.787 6.01622 713.825 7.33773 713.825 11.3157V16.0507C713.825 20.2347 712.679 21.5294 708.353 21.5294H695.667C691.341 21.5294 690.196 20.2347 690.196 16.0507V11.3112C690.196 7.33773 691.233 6.01622 695.045 5.89079V5.88631C695.541 5.87287 695.944 5.4697 695.944 4.96349V0.927295C695.944 0.416611 695.528 0 695.018 0H694.973C686.017 0 683.132 2.8894 683.132 10.1151V17.2871C683.132 24.5128 686.017 27.353 694.973 27.353H709.056C718.012 27.353 720.897 24.5128 720.897 17.2871V10.1151C720.888 2.89388 718.003 0.00448064 709.047 0.00448064Z" fill="#F3F3F3"/>
<path d="M704.632 0.00451452H699.38C698.879 0.00451452 698.472 0.412165 698.472 0.91389V15.4415C698.472 15.9432 698.879 16.3509 699.38 16.3509H704.632C705.133 16.3509 705.54 15.9432 705.54 15.4415V0.90941C705.54 0.412164 705.133 0.00451452 704.632 0.00451452Z" fill="#F3F3F3"/>
<path d="M709.047 88.1739H709.002C708.492 88.1739 708.076 88.5905 708.076 89.1012V93.1374C708.076 93.6391 708.479 94.0423 708.975 94.0602V94.0647C712.787 94.1856 713.825 95.5072 713.825 99.4851V104.22C713.825 108.404 712.679 109.699 708.353 109.699H695.667C691.341 109.699 690.196 108.404 690.196 104.22V99.4806C690.196 95.5071 691.233 94.1856 695.045 94.0602V94.0557C695.541 94.0423 695.944 93.6391 695.944 93.1329V89.0967C695.944 88.586 695.528 88.1694 695.018 88.1694H694.973C686.017 88.1694 683.132 91.0588 683.132 98.2846V105.457C683.132 112.682 686.017 115.522 694.973 115.522H709.056C718.012 115.522 720.897 112.682 720.897 105.457V98.2846C720.888 91.0633 718.003 88.1739 709.047 88.1739Z" fill="#F3F3F3"/>
<path d="M704.632 88.1739H699.38C698.879 88.1739 698.472 88.5816 698.472 89.0833V103.611C698.472 104.113 698.879 104.52 699.38 104.52H704.632C705.133 104.52 705.54 104.113 705.54 103.611V89.0788C705.54 88.5816 705.133 88.1739 704.632 88.1739Z" fill="#F3F3F3"/>
<path d="M56.9664 44.0892H56.9217C56.4117 44.0892 55.9957 44.5058 55.9957 45.0165V49.0527C55.9957 49.5544 56.3983 49.9576 56.8948 49.9755V49.98C60.7063 50.1009 61.7441 51.4224 61.7441 55.4004V60.1354C61.7441 64.3195 60.5989 65.6141 56.273 65.6141H43.5862C39.2603 65.6141 38.1151 64.3195 38.1151 60.1354V55.3959C38.1151 51.4224 39.153 50.1009 42.9644 49.9755V49.971C43.4609 49.9576 43.8636 49.5544 43.8636 49.0482V45.012C43.8636 44.5013 43.4475 44.0847 42.9375 44.0847H42.8928C33.9369 44.0847 31.0514 46.9741 31.0514 54.1998V61.3718C31.0514 68.5976 33.9369 71.4377 42.8928 71.4377H56.9754C65.9313 71.4377 68.8167 68.5976 68.8167 61.3718V54.1998C68.8078 46.9786 65.9224 44.0892 56.9664 44.0892Z" fill="#F3F3F3"/>
<path d="M52.5512 44.0892H47.2994C46.7983 44.0892 46.3912 44.4969 46.3912 44.9986V59.5262C46.3912 60.0279 46.7983 60.4356 47.2994 60.4356H52.5512C53.0523 60.4356 53.4593 60.0279 53.4593 59.5262V44.9941C53.4593 44.4969 53.0523 44.0892 52.5512 44.0892Z" fill="#F3F3F3"/>
<path d="M56.9664 132.259H56.9217C56.4117 132.259 55.9957 132.675 55.9957 133.186V137.222C55.9957 137.724 56.3983 138.127 56.8948 138.145V138.149C60.7063 138.27 61.7441 139.592 61.7441 143.57V148.305C61.7441 152.489 60.5989 153.784 56.273 153.784H43.5862C39.2603 153.784 38.1151 152.489 38.1151 148.305V143.565C38.1151 139.592 39.153 138.27 42.9644 138.145V138.14C43.4609 138.127 43.8636 137.724 43.8636 137.218V133.181C43.8636 132.671 43.4475 132.254 42.9375 132.254H42.8928C33.9369 132.254 31.0514 135.144 31.0514 142.369V149.541C31.0514 156.767 33.9369 159.607 42.8928 159.607H56.9754C65.9313 159.607 68.8167 156.767 68.8167 149.541V142.369C68.8078 135.148 65.9224 132.259 56.9664 132.259Z" fill="#F3F3F3"/>
<path d="M52.5512 132.259H47.2994C46.7983 132.259 46.3912 132.666 46.3912 133.168V147.696C46.3912 148.197 46.7983 148.605 47.2994 148.605H52.5512C53.0523 148.605 53.4593 148.197 53.4593 147.696V133.164C53.4593 132.666 53.0523 132.259 52.5512 132.259Z" fill="#F3F3F3"/>
<path d="M429.584 44.0892H429.539C429.029 44.0892 428.613 44.5058 428.613 45.0165V49.0527C428.613 49.5544 429.016 49.9576 429.512 49.9755V49.98C433.324 50.1009 434.362 51.4224 434.362 55.4004V60.1354C434.362 64.3195 433.216 65.6141 428.89 65.6141H416.204C411.878 65.6141 410.732 64.3195 410.732 60.1354V55.3959C410.732 51.4224 411.77 50.1009 415.582 49.9755V49.971C416.078 49.9576 416.481 49.5544 416.481 49.0482V45.012C416.481 44.5013 416.065 44.0847 415.555 44.0847H415.51C406.554 44.0847 403.669 46.9741 403.669 54.1998V61.3718C403.669 68.5976 406.554 71.4377 415.51 71.4377H429.593C438.549 71.4377 441.434 68.5976 441.434 61.3718V54.1998C441.425 46.9786 438.54 44.0892 429.584 44.0892Z" fill="#F3F3F3"/>
<path d="M425.169 44.0892H419.917C419.416 44.0892 419.009 44.4969 419.009 44.9986V59.5262C419.009 60.0279 419.416 60.4356 419.917 60.4356H425.169C425.67 60.4356 426.077 60.0279 426.077 59.5262V44.9941C426.077 44.4969 425.67 44.0892 425.169 44.0892Z" fill="#F3F3F3"/>
<path d="M429.584 132.259H429.539C429.029 132.259 428.613 132.675 428.613 133.186V137.222C428.613 137.724 429.016 138.127 429.512 138.145V138.149C433.324 138.27 434.362 139.592 434.362 143.57V148.305C434.362 152.489 433.216 153.784 428.89 153.784H416.204C411.878 153.784 410.732 152.489 410.732 148.305V143.565C410.732 139.592 411.77 138.27 415.582 138.145V138.14C416.078 138.127 416.481 137.724 416.481 137.218V133.181C416.481 132.671 416.065 132.254 415.555 132.254H415.51C406.554 132.254 403.669 135.144 403.669 142.369V149.541C403.669 156.767 406.554 159.607 415.51 159.607H429.593C438.549 159.607 441.434 156.767 441.434 149.541V142.369C441.425 135.148 438.54 132.259 429.584 132.259Z" fill="#F3F3F3"/>
<path d="M425.169 132.259H419.917C419.416 132.259 419.009 132.666 419.009 133.168V147.696C419.009 148.197 419.416 148.605 419.917 148.605H425.169C425.67 148.605 426.077 148.197 426.077 147.696V133.164C426.077 132.666 425.67 132.259 425.169 132.259Z" fill="#F3F3F3"/>
<path d="M243.275 44.0892H243.23C242.72 44.0892 242.304 44.5058 242.304 45.0165V49.0527C242.304 49.5544 242.707 49.9576 243.204 49.9755V49.98C247.015 50.1009 248.053 51.4224 248.053 55.4004V60.1354C248.053 64.3195 246.908 65.6141 242.582 65.6141H229.895C225.569 65.6141 224.424 64.3195 224.424 60.1354V55.3959C224.424 51.4224 225.462 50.1009 229.273 49.9755V49.971C229.77 49.9576 230.172 49.5544 230.172 49.0482V45.012C230.172 44.5013 229.756 44.0847 229.246 44.0847H229.201C220.246 44.0847 217.36 46.9741 217.36 54.1998V61.3718C217.36 68.5976 220.246 71.4377 229.201 71.4377H243.284C252.24 71.4377 255.125 68.5976 255.125 61.3718V54.1998C255.116 46.9786 252.231 44.0892 243.275 44.0892Z" fill="#F3F3F3"/>
<path d="M238.86 44.0892H233.608C233.107 44.0892 232.7 44.4969 232.7 44.9986V59.5262C232.7 60.0279 233.107 60.4356 233.608 60.4356H238.86C239.361 60.4356 239.768 60.0279 239.768 59.5262V44.9941C239.768 44.4969 239.361 44.0892 238.86 44.0892Z" fill="#F3F3F3"/>
<path d="M243.275 132.259H243.23C242.72 132.259 242.304 132.675 242.304 133.186V137.222C242.304 137.724 242.707 138.127 243.204 138.145V138.149C247.015 138.27 248.053 139.592 248.053 143.57V148.305C248.053 152.489 246.908 153.784 242.582 153.784H229.895C225.569 153.784 224.424 152.489 224.424 148.305V143.565C224.424 139.592 225.462 138.27 229.273 138.145V138.14C229.77 138.127 230.172 137.724 230.172 137.218V133.181C230.172 132.671 229.756 132.254 229.246 132.254H229.201C220.246 132.254 217.36 135.144 217.36 142.369V149.541C217.36 156.767 220.246 159.607 229.201 159.607H243.284C252.24 159.607 255.125 156.767 255.125 149.541V142.369C255.116 135.148 252.231 132.259 243.275 132.259Z" fill="#F3F3F3"/>
<path d="M238.86 132.259H233.608C233.107 132.259 232.7 132.666 232.7 133.168V147.696C232.7 148.197 233.107 148.605 233.608 148.605H238.86C239.361 148.605 239.768 148.197 239.768 147.696V133.164C239.768 132.666 239.361 132.259 238.86 132.259Z" fill="#F3F3F3"/>
<path d="M615.893 44.0892H615.848C615.338 44.0892 614.922 44.5058 614.922 45.0165V49.0527C614.922 49.5544 615.324 49.9576 615.821 49.9755V49.98C619.632 50.1009 620.67 51.4224 620.67 55.4004V60.1354C620.67 64.3195 619.525 65.6141 615.199 65.6141H602.512C598.186 65.6141 597.041 64.3195 597.041 60.1354V55.3959C597.041 51.4224 598.079 50.1009 601.89 49.9755V49.971C602.387 49.9576 602.79 49.5544 602.79 49.0482V45.012C602.79 44.5013 602.374 44.0847 601.864 44.0847H601.819C592.863 44.0847 589.977 46.9741 589.977 54.1998V61.3718C589.977 68.5976 592.863 71.4377 601.819 71.4377H615.901C624.857 71.4377 627.743 68.5976 627.743 61.3718V54.1998C627.734 46.9786 624.848 44.0892 615.893 44.0892Z" fill="#F3F3F3"/>
<path d="M611.477 44.0892H606.225C605.724 44.0892 605.317 44.4969 605.317 44.9986V59.5262C605.317 60.0279 605.724 60.4356 606.225 60.4356H611.477C611.978 60.4356 612.385 60.0279 612.385 59.5262V44.9941C612.385 44.4969 611.978 44.0892 611.477 44.0892Z" fill="#F3F3F3"/>
<path d="M615.893 132.259H615.848C615.338 132.259 614.922 132.675 614.922 133.186V137.222C614.922 137.724 615.324 138.127 615.821 138.145V138.149C619.632 138.27 620.67 139.592 620.67 143.57V148.305C620.67 152.489 619.525 153.784 615.199 153.784H602.512C598.186 153.784 597.041 152.489 597.041 148.305V143.565C597.041 139.592 598.079 138.27 601.89 138.145V138.14C602.387 138.127 602.79 137.724 602.79 137.218V133.181C602.79 132.671 602.374 132.254 601.864 132.254H601.819C592.863 132.254 589.977 135.144 589.977 142.369V149.541C589.977 156.767 592.863 159.607 601.819 159.607H615.901C624.857 159.607 627.743 156.767 627.743 149.541V142.369C627.734 135.148 624.848 132.259 615.893 132.259Z" fill="#F3F3F3"/>
<path d="M611.477 132.259H606.225C605.724 132.259 605.317 132.666 605.317 133.168V147.696C605.317 148.197 605.724 148.605 606.225 148.605H611.477C611.978 148.605 612.385 148.197 612.385 147.696V133.164C612.385 132.666 611.978 132.259 611.477 132.259Z" fill="#F3F3F3"/>
<path d="M119.069 44.0892H119.025C118.515 44.0892 118.099 44.5058 118.099 45.0165V49.0527C118.099 49.5544 118.501 49.9576 118.998 49.9755V49.98C122.809 50.1009 123.847 51.4224 123.847 55.4004V60.1354C123.847 64.3195 122.702 65.6141 118.376 65.6141H105.689C101.363 65.6141 100.218 64.3195 100.218 60.1354V55.3959C100.218 51.4224 101.256 50.1009 105.067 49.9755V49.971C105.564 49.9576 105.966 49.5544 105.966 49.0482V45.012C105.966 44.5013 105.55 44.0847 105.04 44.0847H104.996C96.0397 44.0847 93.1543 46.9741 93.1543 54.1998V61.3718C93.1543 68.5976 96.0397 71.4377 104.996 71.4377H119.078C128.034 71.4377 130.92 68.5976 130.92 61.3718V54.1998C130.911 46.9786 128.025 44.0892 119.069 44.0892Z" fill="#F3F3F3"/>
<path d="M114.654 44.0892H109.402C108.901 44.0892 108.494 44.4969 108.494 44.9986V59.5262C108.494 60.0279 108.901 60.4356 109.402 60.4356H114.654C115.155 60.4356 115.562 60.0279 115.562 59.5262V44.9941C115.562 44.4969 115.155 44.0892 114.654 44.0892Z" fill="#F3F3F3"/>
<path d="M119.069 132.259H119.025C118.515 132.259 118.099 132.675 118.099 133.186V137.222C118.099 137.724 118.501 138.127 118.998 138.145V138.149C122.809 138.27 123.847 139.592 123.847 143.57V148.305C123.847 152.489 122.702 153.784 118.376 153.784H105.689C101.363 153.784 100.218 152.489 100.218 148.305V143.565C100.218 139.592 101.256 138.27 105.067 138.145V138.14C105.564 138.127 105.966 137.724 105.966 137.218V133.181C105.966 132.671 105.55 132.254 105.04 132.254H104.996C96.0397 132.254 93.1543 135.144 93.1543 142.369V149.541C93.1543 156.767 96.0397 159.607 104.996 159.607H119.078C128.034 159.607 130.92 156.767 130.92 149.541V142.369C130.911 135.148 128.025 132.259 119.069 132.259Z" fill="#F3F3F3"/>
<path d="M114.654 132.259H109.402C108.901 132.259 108.494 132.666 108.494 133.168V147.696C108.494 148.197 108.901 148.605 109.402 148.605H114.654C115.155 148.605 115.562 148.197 115.562 147.696V133.164C115.562 132.666 115.155 132.259 114.654 132.259Z" fill="#F3F3F3"/>
<path d="M491.687 44.0892H491.642C491.132 44.0892 490.716 44.5058 490.716 45.0165V49.0527C490.716 49.5544 491.119 49.9576 491.615 49.9755V49.98C495.427 50.1009 496.464 51.4224 496.464 55.4004V60.1354C496.464 64.3195 495.319 65.6141 490.993 65.6141H478.306C473.981 65.6141 472.835 64.3195 472.835 60.1354V55.3959C472.835 51.4224 473.873 50.1009 477.685 49.9755V49.971C478.181 49.9576 478.584 49.5544 478.584 49.0482V45.012C478.584 44.5013 478.168 44.0847 477.658 44.0847H477.613C468.657 44.0847 465.772 46.9741 465.772 54.1998V61.3718C465.772 68.5976 468.657 71.4377 477.613 71.4377H491.696C500.652 71.4377 503.537 68.5976 503.537 61.3718V54.1998C503.528 46.9786 500.643 44.0892 491.687 44.0892Z" fill="#F3F3F3"/>
<path d="M487.272 44.0892H482.02C481.519 44.0892 481.112 44.4969 481.112 44.9986V59.5262C481.112 60.0279 481.519 60.4356 482.02 60.4356H487.272C487.773 60.4356 488.18 60.0279 488.18 59.5262V44.9941C488.18 44.4969 487.773 44.0892 487.272 44.0892Z" fill="#F3F3F3"/>
<path d="M491.687 132.259H491.642C491.132 132.259 490.716 132.675 490.716 133.186V137.222C490.716 137.724 491.119 138.127 491.615 138.145V138.149C495.427 138.27 496.464 139.592 496.464 143.57V148.305C496.464 152.489 495.319 153.784 490.993 153.784H478.306C473.981 153.784 472.835 152.489 472.835 148.305V143.565C472.835 139.592 473.873 138.27 477.685 138.145V138.14C478.181 138.127 478.584 137.724 478.584 137.218V133.181C478.584 132.671 478.168 132.254 477.658 132.254H477.613C468.657 132.254 465.772 135.144 465.772 142.369V149.541C465.772 156.767 468.657 159.607 477.613 159.607H491.696C500.652 159.607 503.537 156.767 503.537 149.541V142.369C503.528 135.148 500.643 132.259 491.687 132.259Z" fill="#F3F3F3"/>
<path d="M487.272 132.259H482.02C481.519 132.259 481.112 132.666 481.112 133.168V147.696C481.112 148.197 481.519 148.605 482.02 148.605H487.272C487.773 148.605 488.18 148.197 488.18 147.696V133.164C488.18 132.666 487.773 132.259 487.272 132.259Z" fill="#F3F3F3"/>
<path d="M305.378 44.0892H305.333C304.823 44.0892 304.407 44.5058 304.407 45.0165V49.0527C304.407 49.5544 304.81 49.9576 305.306 49.9755V49.98C309.118 50.1009 310.156 51.4224 310.156 55.4004V60.1354C310.156 64.3195 309.01 65.6141 304.685 65.6141H291.998C287.672 65.6141 286.527 64.3195 286.527 60.1354V55.3959C286.527 51.4224 287.565 50.1009 291.376 49.9755V49.971C291.873 49.9576 292.275 49.5544 292.275 49.0482V45.012C292.275 44.5013 291.859 44.0847 291.349 44.0847H291.304C282.348 44.0847 279.463 46.9741 279.463 54.1998V61.3718C279.463 68.5976 282.348 71.4377 291.304 71.4377H305.387C314.343 71.4377 317.228 68.5976 317.228 61.3718V54.1998C317.219 46.9786 314.334 44.0892 305.378 44.0892Z" fill="#F3F3F3"/>
<path d="M300.963 44.0892H295.711C295.21 44.0892 294.803 44.4969 294.803 44.9986V59.5262C294.803 60.0279 295.21 60.4356 295.711 60.4356H300.963C301.464 60.4356 301.871 60.0279 301.871 59.5262V44.9941C301.871 44.4969 301.464 44.0892 300.963 44.0892Z" fill="#F3F3F3"/>
<path d="M305.378 132.259H305.333C304.823 132.259 304.407 132.675 304.407 133.186V137.222C304.407 137.724 304.81 138.127 305.306 138.145V138.149C309.118 138.27 310.156 139.592 310.156 143.57V148.305C310.156 152.489 309.01 153.784 304.685 153.784H291.998C287.672 153.784 286.527 152.489 286.527 148.305V143.565C286.527 139.592 287.565 138.27 291.376 138.145V138.14C291.873 138.127 292.275 137.724 292.275 137.218V133.181C292.275 132.671 291.859 132.254 291.349 132.254H291.304C282.348 132.254 279.463 135.144 279.463 142.369V149.541C279.463 156.767 282.348 159.607 291.304 159.607H305.387C314.343 159.607 317.228 156.767 317.228 149.541V142.369C317.219 135.148 314.334 132.259 305.378 132.259Z" fill="#F3F3F3"/>
<path d="M300.963 132.259H295.711C295.21 132.259 294.803 132.666 294.803 133.168V147.696C294.803 148.197 295.21 148.605 295.711 148.605H300.963C301.464 148.605 301.871 148.197 301.871 147.696V133.164C301.871 132.666 301.464 132.259 300.963 132.259Z" fill="#F3F3F3"/>
<path d="M677.995 44.0892H677.951C677.441 44.0892 677.025 44.5058 677.025 45.0165V49.0527C677.025 49.5544 677.427 49.9576 677.924 49.9755V49.98C681.735 50.1009 682.773 51.4224 682.773 55.4004V60.1354C682.773 64.3195 681.628 65.6141 677.302 65.6141H664.615C660.289 65.6141 659.144 64.3195 659.144 60.1354V55.3959C659.144 51.4224 660.182 50.1009 663.993 49.9755V49.971C664.49 49.9576 664.893 49.5544 664.893 49.0482V45.012C664.893 44.5013 664.476 44.0847 663.966 44.0847H663.922C654.966 44.0847 652.08 46.9741 652.08 54.1998V61.3718C652.08 68.5976 654.966 71.4377 663.922 71.4377H678.004C686.96 71.4377 689.846 68.5976 689.846 61.3718V54.1998C689.837 46.9786 686.951 44.0892 677.995 44.0892Z" fill="#F3F3F3"/>
<path d="M673.58 44.0892H668.328C667.827 44.0892 667.42 44.4969 667.42 44.9986V59.5262C667.42 60.0279 667.827 60.4356 668.328 60.4356H673.58C674.081 60.4356 674.488 60.0279 674.488 59.5262V44.9941C674.488 44.4969 674.081 44.0892 673.58 44.0892Z" fill="#F3F3F3"/>
<path d="M677.995 132.259H677.951C677.441 132.259 677.025 132.675 677.025 133.186V137.222C677.025 137.724 677.427 138.127 677.924 138.145V138.149C681.735 138.27 682.773 139.592 682.773 143.57V148.305C682.773 152.489 681.628 153.784 677.302 153.784H664.615C660.289 153.784 659.144 152.489 659.144 148.305V143.565C659.144 139.592 660.182 138.27 663.993 138.145V138.14C664.49 138.127 664.893 137.724 664.893 137.218V133.181C664.893 132.671 664.476 132.254 663.966 132.254H663.922C654.966 132.254 652.08 135.144 652.08 142.369V149.541C652.08 156.767 654.966 159.607 663.922 159.607H678.004C686.96 159.607 689.846 156.767 689.846 149.541V142.369C689.837 135.148 686.951 132.259 677.995 132.259Z" fill="#F3F3F3"/>
<path d="M673.58 132.259H668.328C667.827 132.259 667.42 132.666 667.42 133.168V147.696C667.42 148.197 667.827 148.605 668.328 148.605H673.58C674.081 148.605 674.488 148.197 674.488 147.696V133.164C674.488 132.666 674.081 132.259 673.58 132.259Z" fill="#F3F3F3"/>
<path d="M181.172 44.0892H181.127C180.618 44.0892 180.201 44.5058 180.201 45.0165V49.0527C180.201 49.5544 180.604 49.9576 181.101 49.9755V49.98C184.912 50.1009 185.95 51.4224 185.95 55.4004V60.1354C185.95 64.3195 184.805 65.6141 180.479 65.6141H167.792C163.466 65.6141 162.321 64.3195 162.321 60.1354V55.3959C162.321 51.4224 163.359 50.1009 167.17 49.9755V49.971C167.667 49.9576 168.069 49.5544 168.069 49.0482V45.012C168.069 44.5013 167.653 44.0847 167.143 44.0847H167.099C158.143 44.0847 155.257 46.9741 155.257 54.1998V61.3718C155.257 68.5976 158.143 71.4377 167.099 71.4377H181.181C190.137 71.4377 193.023 68.5976 193.023 61.3718V54.1998C193.014 46.9786 190.128 44.0892 181.172 44.0892Z" fill="#F3F3F3"/>
<path d="M176.757 44.0892H171.505C171.004 44.0892 170.597 44.4969 170.597 44.9986V59.5262C170.597 60.0279 171.004 60.4356 171.505 60.4356H176.757C177.258 60.4356 177.665 60.0279 177.665 59.5262V44.9941C177.665 44.4969 177.258 44.0892 176.757 44.0892Z" fill="#F3F3F3"/>
<path d="M181.172 132.259H181.127C180.618 132.259 180.201 132.675 180.201 133.186V137.222C180.201 137.724 180.604 138.127 181.101 138.145V138.149C184.912 138.27 185.95 139.592 185.95 143.57V148.305C185.95 152.489 184.805 153.784 180.479 153.784H167.792C163.466 153.784 162.321 152.489 162.321 148.305V143.565C162.321 139.592 163.359 138.27 167.17 138.145V138.14C167.667 138.127 168.069 137.724 168.069 137.218V133.181C168.069 132.671 167.653 132.254 167.143 132.254H167.099C158.143 132.254 155.257 135.144 155.257 142.369V149.541C155.257 156.767 158.143 159.607 167.099 159.607H181.181C190.137 159.607 193.023 156.767 193.023 149.541V142.369C193.014 135.148 190.128 132.259 181.172 132.259Z" fill="#F3F3F3"/>
<path d="M176.757 132.259H171.505C171.004 132.259 170.597 132.666 170.597 133.168V147.696C170.597 148.197 171.004 148.605 171.505 148.605H176.757C177.258 148.605 177.665 148.197 177.665 147.696V133.164C177.665 132.666 177.258 132.259 176.757 132.259Z" fill="#F3F3F3"/>
<path d="M553.79 44.0892H553.745C553.235 44.0892 552.819 44.5058 552.819 45.0165V49.0527C552.819 49.5544 553.221 49.9576 553.718 49.9755V49.98C557.529 50.1009 558.567 51.4224 558.567 55.4004V60.1354C558.567 64.3195 557.422 65.6141 553.096 65.6141H540.409C536.084 65.6141 534.938 64.3195 534.938 60.1354V55.3959C534.938 51.4224 535.976 50.1009 539.787 49.9755V49.971C540.284 49.9576 540.687 49.5544 540.687 49.0482V45.012C540.687 44.5013 540.271 44.0847 539.761 44.0847H539.716C530.76 44.0847 527.875 46.9741 527.875 54.1998V61.3718C527.875 68.5976 530.76 71.4377 539.716 71.4377H553.799C562.755 71.4377 565.64 68.5976 565.64 61.3718V54.1998C565.631 46.9786 562.746 44.0892 553.79 44.0892Z" fill="#F3F3F3"/>
<path d="M549.374 44.0892H544.123C543.621 44.0892 543.214 44.4969 543.214 44.9986V59.5262C543.214 60.0279 543.621 60.4356 544.123 60.4356H549.374C549.875 60.4356 550.283 60.0279 550.283 59.5262V44.9941C550.283 44.4969 549.875 44.0892 549.374 44.0892Z" fill="#F3F3F3"/>
<path d="M553.79 132.259H553.745C553.235 132.259 552.819 132.675 552.819 133.186V137.222C552.819 137.724 553.221 138.127 553.718 138.145V138.149C557.529 138.27 558.567 139.592 558.567 143.57V148.305C558.567 152.489 557.422 153.784 553.096 153.784H540.409C536.084 153.784 534.938 152.489 534.938 148.305V143.565C534.938 139.592 535.976 138.27 539.787 138.145V138.14C540.284 138.127 540.687 137.724 540.687 137.218V133.181C540.687 132.671 540.271 132.254 539.761 132.254H539.716C530.76 132.254 527.875 135.144 527.875 142.369V149.541C527.875 156.767 530.76 159.607 539.716 159.607H553.799C562.755 159.607 565.64 156.767 565.64 149.541V142.369C565.631 135.148 562.746 132.259 553.79 132.259Z" fill="#F3F3F3"/>
<path d="M549.374 132.259H544.123C543.621 132.259 543.214 132.666 543.214 133.168V147.696C543.214 148.197 543.621 148.605 544.123 148.605H549.374C549.875 148.605 550.283 148.197 550.283 147.696V133.164C550.283 132.666 549.875 132.259 549.374 132.259Z" fill="#F3F3F3"/>
<path d="M367.481 44.0892H367.436C366.926 44.0892 366.51 44.5058 366.51 45.0165V49.0527C366.51 49.5544 366.913 49.9576 367.409 49.9755V49.98C371.221 50.1009 372.259 51.4224 372.259 55.4004V60.1354C372.259 64.3195 371.113 65.6141 366.788 65.6141H354.101C349.775 65.6141 348.63 64.3195 348.63 60.1354V55.3959C348.63 51.4224 349.667 50.1009 353.479 49.9755V49.971C353.975 49.9576 354.378 49.5544 354.378 49.0482V45.012C354.378 44.5013 353.962 44.0847 353.452 44.0847H353.407C344.451 44.0847 341.566 46.9741 341.566 54.1998V61.3718C341.566 68.5976 344.451 71.4377 353.407 71.4377H367.49C376.446 71.4377 379.331 68.5976 379.331 61.3718V54.1998C379.322 46.9786 376.437 44.0892 367.481 44.0892Z" fill="#F3F3F3"/>
<path d="M363.066 44.0892H357.814C357.313 44.0892 356.906 44.4969 356.906 44.9986V59.5262C356.906 60.0279 357.313 60.4356 357.814 60.4356H363.066C363.567 60.4356 363.974 60.0279 363.974 59.5262V44.9941C363.974 44.4969 363.567 44.0892 363.066 44.0892Z" fill="#F3F3F3"/>
<path d="M367.481 132.259H367.436C366.926 132.259 366.51 132.675 366.51 133.186V137.222C366.51 137.724 366.913 138.127 367.409 138.145V138.149C371.221 138.27 372.259 139.592 372.259 143.57V148.305C372.259 152.489 371.113 153.784 366.788 153.784H354.101C349.775 153.784 348.63 152.489 348.63 148.305V143.565C348.63 139.592 349.667 138.27 353.479 138.145V138.14C353.975 138.127 354.378 137.724 354.378 137.218V133.181C354.378 132.671 353.962 132.254 353.452 132.254H353.407C344.451 132.254 341.566 135.144 341.566 142.369V149.541C341.566 156.767 344.451 159.607 353.407 159.607H367.49C376.446 159.607 379.331 156.767 379.331 149.541V142.369C379.322 135.148 376.437 132.259 367.481 132.259Z" fill="#F3F3F3"/>
<path d="M363.066 132.259H357.814C357.313 132.259 356.906 132.666 356.906 133.168V147.696C356.906 148.197 357.313 148.605 357.814 148.605H363.066C363.567 148.605 363.974 148.197 363.974 147.696V133.164C363.974 132.666 363.567 132.259 363.066 132.259Z" fill="#F3F3F3"/>
<path d="M740.098 44.0892H740.054C739.544 44.0892 739.128 44.5058 739.128 45.0165V49.0527C739.128 49.5544 739.53 49.9576 740.027 49.9755V49.98C743.838 50.1009 744.876 51.4224 744.876 55.4004V60.1354C744.876 64.3195 743.731 65.6141 739.405 65.6141H726.718C722.392 65.6141 721.247 64.3195 721.247 60.1354V55.3959C721.247 51.4224 722.285 50.1009 726.096 49.9755V49.971C726.593 49.9576 726.995 49.5544 726.995 49.0482V45.012C726.995 44.5013 726.579 44.0847 726.069 44.0847H726.025C717.069 44.0847 714.183 46.9741 714.183 54.1998V61.3718C714.183 68.5976 717.069 71.4377 726.025 71.4377H740.107C749.063 71.4377 751.949 68.5976 751.949 61.3718V54.1998C751.94 46.9786 749.054 44.0892 740.098 44.0892Z" fill="#F3F3F3"/>
<path d="M735.683 44.0892H730.431C729.93 44.0892 729.523 44.4969 729.523 44.9986V59.5262C729.523 60.0279 729.93 60.4356 730.431 60.4356H735.683C736.184 60.4356 736.591 60.0279 736.591 59.5262V44.9941C736.591 44.4969 736.184 44.0892 735.683 44.0892Z" fill="#F3F3F3"/>
<path d="M740.098 132.259H740.054C739.544 132.259 739.128 132.675 739.128 133.186V137.222C739.128 137.724 739.53 138.127 740.027 138.145V138.149C743.838 138.27 744.876 139.592 744.876 143.57V148.305C744.876 152.489 743.731 153.784 739.405 153.784H726.718C722.392 153.784 721.247 152.489 721.247 148.305V143.565C721.247 139.592 722.285 138.27 726.096 138.145V138.14C726.593 138.127 726.995 137.724 726.995 137.218V133.181C726.995 132.671 726.579 132.254 726.069 132.254H726.025C717.069 132.254 714.183 135.144 714.183 142.369V149.541C714.183 156.767 717.069 159.607 726.025 159.607H740.107C749.063 159.607 751.949 156.767 751.949 149.541V142.369C751.94 135.148 749.054 132.259 740.098 132.259Z" fill="#F3F3F3"/>
<path d="M735.683 132.259H730.431C729.93 132.259 729.523 132.666 729.523 133.168V147.696C729.523 148.197 729.93 148.605 730.431 148.605H735.683C736.184 148.605 736.591 148.197 736.591 147.696V133.164C736.591 132.666 736.184 132.259 735.683 132.259Z" fill="#F3F3F3"/>
<path d="M88.0179 0.00448064H87.9731C87.4632 0.00448064 87.0471 0.421091 87.0471 0.931775V4.96797C87.0471 5.4697 87.4497 5.87287 87.9463 5.89079V5.89527C91.7577 6.01622 92.7956 7.33773 92.7956 11.3157V16.0507C92.7956 20.2347 91.6503 21.5294 87.3245 21.5294H74.6376C70.3118 21.5294 69.1666 20.2347 69.1666 16.0507V11.3112C69.1666 7.33773 70.2044 6.01622 74.0158 5.89079V5.88631C74.5124 5.87287 74.915 5.4697 74.915 4.96349V0.927295C74.915 0.416611 74.499 0 73.989 0H73.9442C64.9883 0 62.1029 2.8894 62.1029 10.1151V17.2871C62.1029 24.5128 64.9883 27.353 73.9442 27.353H88.0268C96.9828 27.353 99.8682 24.5128 99.8682 17.2871V10.1151C99.8592 2.89388 96.9738 0.00448064 88.0179 0.00448064Z" fill="#F3F3F3"/>
<path d="M83.6027 0.00451452H78.3508C77.8498 0.00451452 77.4427 0.412165 77.4427 0.91389V15.4415C77.4427 15.9432 77.8498 16.3509 78.3508 16.3509H83.6027C84.1037 16.3509 84.5108 15.9432 84.5108 15.4415V0.90941C84.5108 0.412164 84.1037 0.00451452 83.6027 0.00451452Z" fill="#F3F3F3"/>
<path d="M88.0179 88.1739H87.9731C87.4632 88.1739 87.0471 88.5905 87.0471 89.1012V93.1374C87.0471 93.6391 87.4497 94.0423 87.9463 94.0602V94.0647C91.7577 94.1856 92.7956 95.5072 92.7956 99.4851V104.22C92.7956 108.404 91.6503 109.699 87.3245 109.699H74.6376C70.3118 109.699 69.1666 108.404 69.1666 104.22V99.4806C69.1666 95.5071 70.2044 94.1856 74.0158 94.0602V94.0557C74.5124 94.0423 74.915 93.6391 74.915 93.1329V89.0967C74.915 88.586 74.499 88.1694 73.989 88.1694H73.9442C64.9883 88.1694 62.1029 91.0588 62.1029 98.2846V105.457C62.1029 112.682 64.9883 115.522 73.9442 115.522H88.0268C96.9828 115.522 99.8682 112.682 99.8682 105.457V98.2846C99.8592 91.0633 96.9738 88.1739 88.0179 88.1739Z" fill="#F3F3F3"/>
<path d="M83.6027 88.1739H78.3508C77.8498 88.1739 77.4427 88.5816 77.4427 89.0833V103.611C77.4427 104.113 77.8498 104.52 78.3508 104.52H83.6027C84.1037 104.52 84.5108 104.113 84.5108 103.611V89.0788C84.5108 88.5816 84.1037 88.1739 83.6027 88.1739Z" fill="#F3F3F3"/>
<path d="M460.635 0.00448064H460.591C460.081 0.00448064 459.665 0.421091 459.665 0.931775V4.96797C459.665 5.4697 460.067 5.87287 460.564 5.89079V5.89527C464.375 6.01622 465.413 7.33773 465.413 11.3157V16.0507C465.413 20.2347 464.268 21.5294 459.942 21.5294H447.255C442.929 21.5294 441.784 20.2347 441.784 16.0507V11.3112C441.784 7.33773 442.822 6.01622 446.633 5.89079V5.88631C447.13 5.87287 447.532 5.4697 447.532 4.96349V0.927295C447.532 0.416611 447.116 0 446.606 0H446.562C437.606 0 434.72 2.8894 434.72 10.1151V17.2871C434.72 24.5128 437.606 27.353 446.562 27.353H460.644C469.6 27.353 472.486 24.5128 472.486 17.2871V10.1151C472.477 2.89388 469.591 0.00448064 460.635 0.00448064Z" fill="#F3F3F3"/>
<path d="M456.22 0.00451452H450.968C450.467 0.00451452 450.06 0.412165 450.06 0.91389V15.4415C450.06 15.9432 450.467 16.3509 450.968 16.3509H456.22C456.721 16.3509 457.128 15.9432 457.128 15.4415V0.90941C457.128 0.412164 456.721 0.00451452 456.22 0.00451452Z" fill="#F3F3F3"/>
<path d="M460.635 88.1739H460.591C460.081 88.1739 459.665 88.5905 459.665 89.1012V93.1374C459.665 93.6391 460.067 94.0423 460.564 94.0602V94.0647C464.375 94.1856 465.413 95.5072 465.413 99.4851V104.22C465.413 108.404 464.268 109.699 459.942 109.699H447.255C442.929 109.699 441.784 108.404 441.784 104.22V99.4806C441.784 95.5071 442.822 94.1856 446.633 94.0602V94.0557C447.13 94.0423 447.532 93.6391 447.532 93.1329V89.0967C447.532 88.586 447.116 88.1694 446.606 88.1694H446.562C437.606 88.1694 434.72 91.0588 434.72 98.2846V105.457C434.72 112.682 437.606 115.522 446.562 115.522H460.644C469.6 115.522 472.486 112.682 472.486 105.457V98.2846C472.477 91.0633 469.591 88.1739 460.635 88.1739Z" fill="#F3F3F3"/>
<path d="M456.22 88.1739H450.968C450.467 88.1739 450.06 88.5816 450.06 89.0833V103.611C450.06 104.113 450.467 104.52 450.968 104.52H456.22C456.721 104.52 457.128 104.113 457.128 103.611V89.0788C457.128 88.5816 456.721 88.1739 456.22 88.1739Z" fill="#F3F3F3"/>
<path d="M274.327 0.00448064H274.282C273.772 0.00448064 273.356 0.421091 273.356 0.931775V4.96797C273.356 5.4697 273.758 5.87287 274.255 5.89079V5.89527C278.066 6.01622 279.104 7.33773 279.104 11.3157V16.0507C279.104 20.2347 277.959 21.5294 273.633 21.5294H260.946C256.62 21.5294 255.475 20.2347 255.475 16.0507V11.3112C255.475 7.33773 256.513 6.01622 260.325 5.89079V5.88631C260.821 5.87287 261.224 5.4697 261.224 4.96349V0.927295C261.224 0.416611 260.808 0 260.298 0H260.253C251.297 0 248.412 2.8894 248.412 10.1151V17.2871C248.412 24.5128 251.297 27.353 260.253 27.353H274.335C283.291 27.353 286.177 24.5128 286.177 17.2871V10.1151C286.168 2.89388 283.282 0.00448064 274.327 0.00448064Z" fill="#F3F3F3"/>
<path d="M269.911 0.00451452H264.66C264.158 0.00451452 263.751 0.412165 263.751 0.91389V15.4415C263.751 15.9432 264.158 16.3509 264.66 16.3509H269.911C270.412 16.3509 270.819 15.9432 270.819 15.4415V0.90941C270.819 0.412164 270.412 0.00451452 269.911 0.00451452Z" fill="#F3F3F3"/>
<path d="M274.327 88.1739H274.282C273.772 88.1739 273.356 88.5905 273.356 89.1012V93.1374C273.356 93.6391 273.758 94.0423 274.255 94.0602V94.0647C278.066 94.1856 279.104 95.5072 279.104 99.4851V104.22C279.104 108.404 277.959 109.699 273.633 109.699H260.946C256.62 109.699 255.475 108.404 255.475 104.22V99.4806C255.475 95.5071 256.513 94.1856 260.325 94.0602V94.0557C260.821 94.0423 261.224 93.6391 261.224 93.1329V89.0967C261.224 88.586 260.808 88.1694 260.298 88.1694H260.253C251.297 88.1694 248.412 91.0588 248.412 98.2846V105.457C248.412 112.682 251.297 115.522 260.253 115.522H274.335C283.291 115.522 286.177 112.682 286.177 105.457V98.2846C286.168 91.0633 283.282 88.1739 274.327 88.1739Z" fill="#F3F3F3"/>
<path d="M269.911 88.1739H264.66C264.158 88.1739 263.751 88.5816 263.751 89.0833V103.611C263.751 104.113 264.158 104.52 264.66 104.52H269.911C270.412 104.52 270.819 104.113 270.819 103.611V89.0788C270.819 88.5816 270.412 88.1739 269.911 88.1739Z" fill="#F3F3F3"/>
<path d="M646.944 0.00448064H646.899C646.389 0.00448064 645.973 0.421091 645.973 0.931775V4.96797C645.973 5.4697 646.376 5.87287 646.872 5.89079V5.89527C650.684 6.01622 651.722 7.33773 651.722 11.3157V16.0507C651.722 20.2347 650.576 21.5294 646.251 21.5294H633.564C629.238 21.5294 628.093 20.2347 628.093 16.0507V11.3112C628.093 7.33773 629.13 6.01622 632.942 5.89079V5.88631C633.438 5.87287 633.841 5.4697 633.841 4.96349V0.927295C633.841 0.416611 633.425 0 632.915 0H632.87C623.914 0 621.029 2.8894 621.029 10.1151V17.2871C621.029 24.5128 623.914 27.353 632.87 27.353H646.953C655.909 27.353 658.794 24.5128 658.794 17.2871V10.1151C658.785 2.89388 655.9 0.00448064 646.944 0.00448064Z" fill="#F3F3F3"/>
<path d="M642.529 0.00451452H637.277C636.776 0.00451452 636.369 0.412165 636.369 0.91389V15.4415C636.369 15.9432 636.776 16.3509 637.277 16.3509H642.529C643.03 16.3509 643.437 15.9432 643.437 15.4415V0.90941C643.437 0.412164 643.03 0.00451452 642.529 0.00451452Z" fill="#F3F3F3"/>
<path d="M646.944 88.1739H646.899C646.389 88.1739 645.973 88.5905 645.973 89.1012V93.1374C645.973 93.6391 646.376 94.0423 646.872 94.0602V94.0647C650.684 94.1856 651.722 95.5072 651.722 99.4851V104.22C651.722 108.404 650.576 109.699 646.251 109.699H633.564C629.238 109.699 628.093 108.404 628.093 104.22V99.4806C628.093 95.5071 629.13 94.1856 632.942 94.0602V94.0557C633.438 94.0423 633.841 93.6391 633.841 93.1329V89.0967C633.841 88.586 633.425 88.1694 632.915 88.1694H632.87C623.914 88.1694 621.029 91.0588 621.029 98.2846V105.457C621.029 112.682 623.914 115.522 632.87 115.522H646.953C655.909 115.522 658.794 112.682 658.794 105.457V98.2846C658.785 91.0633 655.9 88.1739 646.944 88.1739Z" fill="#F3F3F3"/>
<path d="M642.529 88.1739H637.277C636.776 88.1739 636.369 88.5816 636.369 89.0833V103.611C636.369 104.113 636.776 104.52 637.277 104.52H642.529C643.03 104.52 643.437 104.113 643.437 103.611V89.0788C643.437 88.5816 643.03 88.1739 642.529 88.1739Z" fill="#F3F3F3"/>
<path d="M212.224 0.00448064H212.179C211.669 0.00448064 211.253 0.421091 211.253 0.931775V4.96797C211.253 5.4697 211.656 5.87287 212.152 5.89079V5.89527C215.964 6.01622 217.001 7.33773 217.001 11.3157V16.0507C217.001 20.2347 215.856 21.5294 211.53 21.5294H198.843C194.518 21.5294 193.372 20.2347 193.372 16.0507V11.3112C193.372 7.33773 194.41 6.01622 198.222 5.89079V5.88631C198.718 5.87287 199.121 5.4697 199.121 4.96349V0.927295C199.121 0.416611 198.705 0 198.195 0H198.15C189.194 0 186.309 2.8894 186.309 10.1151V17.2871C186.309 24.5128 189.194 27.353 198.15 27.353H212.233C221.189 27.353 224.074 24.5128 224.074 17.2871V10.1151C224.065 2.89388 221.18 0.00448064 212.224 0.00448064Z" fill="#F3F3F3"/>
<path d="M207.808 0.00451452H202.557C202.056 0.00451452 201.648 0.412165 201.648 0.91389V15.4415C201.648 15.9432 202.056 16.3509 202.557 16.3509H207.808C208.31 16.3509 208.717 15.9432 208.717 15.4415V0.90941C208.717 0.412164 208.31 0.00451452 207.808 0.00451452Z" fill="#F3F3F3"/>
<path d="M212.224 88.1739H212.179C211.669 88.1739 211.253 88.5905 211.253 89.1012V93.1374C211.253 93.6391 211.656 94.0423 212.152 94.0602V94.0647C215.964 94.1856 217.001 95.5072 217.001 99.4851V104.22C217.001 108.404 215.856 109.699 211.53 109.699H198.843C194.518 109.699 193.372 108.404 193.372 104.22V99.4806C193.372 95.5071 194.41 94.1856 198.222 94.0602V94.0557C198.718 94.0423 199.121 93.6391 199.121 93.1329V89.0967C199.121 88.586 198.705 88.1694 198.195 88.1694H198.15C189.194 88.1694 186.309 91.0588 186.309 98.2846V105.457C186.309 112.682 189.194 115.522 198.15 115.522H212.233C221.189 115.522 224.074 112.682 224.074 105.457V98.2846C224.065 91.0633 221.18 88.1739 212.224 88.1739Z" fill="#F3F3F3"/>
<path d="M207.808 88.1739H202.557C202.056 88.1739 201.648 88.5816 201.648 89.0833V103.611C201.648 104.113 202.056 104.52 202.557 104.52H207.808C208.31 104.52 208.717 104.113 208.717 103.611V89.0788C208.717 88.5816 208.31 88.1739 207.808 88.1739Z" fill="#F3F3F3"/>
<path d="M584.841 0.00448064H584.796C584.286 0.00448064 583.87 0.421091 583.87 0.931775V4.96797C583.87 5.4697 584.273 5.87287 584.769 5.89079V5.89527C588.581 6.01622 589.619 7.33773 589.619 11.3157V16.0507C589.619 20.2347 588.474 21.5294 584.148 21.5294H571.461C567.135 21.5294 565.99 20.2347 565.99 16.0507V11.3112C565.99 7.33773 567.028 6.01622 570.839 5.89079V5.88631C571.336 5.87287 571.738 5.4697 571.738 4.96349V0.927295C571.738 0.416611 571.322 0 570.812 0H570.767C561.811 0 558.926 2.8894 558.926 10.1151V17.2871C558.926 24.5128 561.811 27.353 570.767 27.353H584.85C593.806 27.353 596.691 24.5128 596.691 17.2871V10.1151C596.682 2.89388 593.797 0.00448064 584.841 0.00448064Z" fill="#F3F3F3"/>
<path d="M580.426 0.00451452H575.174C574.673 0.00451452 574.266 0.412165 574.266 0.91389V15.4415C574.266 15.9432 574.673 16.3509 575.174 16.3509H580.426C580.927 16.3509 581.334 15.9432 581.334 15.4415V0.90941C581.334 0.412164 580.927 0.00451452 580.426 0.00451452Z" fill="#F3F3F3"/>
<path d="M584.841 88.1739H584.796C584.286 88.1739 583.87 88.5905 583.87 89.1012V93.1374C583.87 93.6391 584.273 94.0423 584.769 94.0602V94.0647C588.581 94.1856 589.619 95.5072 589.619 99.4851V104.22C589.619 108.404 588.474 109.699 584.148 109.699H571.461C567.135 109.699 565.99 108.404 565.99 104.22V99.4806C565.99 95.5071 567.028 94.1856 570.839 94.0602V94.0557C571.336 94.0423 571.738 93.6391 571.738 93.1329V89.0967C571.738 88.586 571.322 88.1694 570.812 88.1694H570.767C561.811 88.1694 558.926 91.0588 558.926 98.2846V105.457C558.926 112.682 561.811 115.522 570.767 115.522H584.85C593.806 115.522 596.691 112.682 596.691 105.457V98.2846C596.682 91.0633 593.797 88.1739 584.841 88.1739Z" fill="#F3F3F3"/>
<path d="M580.426 88.1739H575.174C574.673 88.1739 574.266 88.5816 574.266 89.0833V103.611C574.266 104.113 574.673 104.52 575.174 104.52H580.426C580.927 104.52 581.334 104.113 581.334 103.611V89.0788C581.334 88.5816 580.927 88.1739 580.426 88.1739Z" fill="#F3F3F3"/>
<path d="M398.532 0.00448064H398.488C397.978 0.00448064 397.562 0.421091 397.562 0.931775V4.96797C397.562 5.4697 397.964 5.87287 398.461 5.89079V5.89527C402.272 6.01622 403.31 7.33773 403.31 11.3157V16.0507C403.31 20.2347 402.165 21.5294 397.839 21.5294H385.152C380.826 21.5294 379.681 20.2347 379.681 16.0507V11.3112C379.681 7.33773 380.719 6.01622 384.53 5.89079V5.88631C385.027 5.87287 385.429 5.4697 385.429 4.96349V0.927295C385.429 0.416611 385.013 0 384.503 0H384.459C375.503 0 372.617 2.8894 372.617 10.1151V17.2871C372.617 24.5128 375.503 27.353 384.459 27.353H398.541C407.497 27.353 410.383 24.5128 410.383 17.2871V10.1151C410.374 2.89388 407.488 0.00448064 398.532 0.00448064Z" fill="#F3F3F3"/>
<path d="M394.117 0.00451452H388.865C388.364 0.00451452 387.957 0.412165 387.957 0.91389V15.4415C387.957 15.9432 388.364 16.3509 388.865 16.3509H394.117C394.618 16.3509 395.025 15.9432 395.025 15.4415V0.90941C395.025 0.412164 394.618 0.00451452 394.117 0.00451452Z" fill="#F3F3F3"/>
<path d="M398.532 88.1739H398.488C397.978 88.1739 397.562 88.5905 397.562 89.1012V93.1374C397.562 93.6391 397.964 94.0423 398.461 94.0602V94.0647C402.272 94.1856 403.31 95.5072 403.31 99.4851V104.22C403.31 108.404 402.165 109.699 397.839 109.699H385.152C380.826 109.699 379.681 108.404 379.681 104.22V99.4806C379.681 95.5071 380.719 94.1856 384.53 94.0602V94.0557C385.027 94.0423 385.429 93.6391 385.429 93.1329V89.0967C385.429 88.586 385.013 88.1694 384.503 88.1694H384.459C375.503 88.1694 372.617 91.0588 372.617 98.2846V105.457C372.617 112.682 375.503 115.522 384.459 115.522H398.541C407.497 115.522 410.383 112.682 410.383 105.457V98.2846C410.374 91.0633 407.488 88.1739 398.532 88.1739Z" fill="#F3F3F3"/>
<path d="M394.117 88.1739H388.865C388.364 88.1739 387.957 88.5816 387.957 89.0833V103.611C387.957 104.113 388.364 104.52 388.865 104.52H394.117C394.618 104.52 395.025 104.113 395.025 103.611V89.0788C395.025 88.5816 394.618 88.1739 394.117 88.1739Z" fill="#F3F3F3"/>
<path d="M771.15 0.00448064H771.105C770.595 0.00448064 770.179 0.421091 770.179 0.931775V4.96797C770.179 5.4697 770.582 5.87287 771.078 5.89079V5.89527C774.89 6.01622 775.927 7.33773 775.927 11.3157V16.0507C775.927 20.2347 774.782 21.5294 770.456 21.5294H757.769C753.444 21.5294 752.298 20.2347 752.298 16.0507V11.3112C752.298 7.33773 753.336 6.01622 757.148 5.89079V5.88631C757.644 5.87287 758.047 5.4697 758.047 4.96349V0.927295C758.047 0.416611 757.631 0 757.121 0H757.076C748.12 0 745.235 2.8894 745.235 10.1151V17.2871C745.235 24.5128 748.12 27.353 757.076 27.353H771.159C780.115 27.353 783 24.5128 783 17.2871V10.1151C782.991 2.89388 780.106 0.00448064 771.15 0.00448064Z" fill="#F3F3F3"/>
<path d="M766.735 0.00451452H761.483C760.982 0.00451452 760.575 0.412165 760.575 0.91389V15.4415C760.575 15.9432 760.982 16.3509 761.483 16.3509H766.735C767.236 16.3509 767.643 15.9432 767.643 15.4415V0.90941C767.643 0.412164 767.236 0.00451452 766.735 0.00451452Z" fill="#F3F3F3"/>
<path d="M771.15 88.1739H771.105C770.595 88.1739 770.179 88.5905 770.179 89.1012V93.1374C770.179 93.6391 770.582 94.0423 771.078 94.0602V94.0647C774.89 94.1856 775.927 95.5072 775.927 99.4851V104.22C775.927 108.404 774.782 109.699 770.456 109.699H757.769C753.444 109.699 752.298 108.404 752.298 104.22V99.4806C752.298 95.5071 753.336 94.1856 757.148 94.0602V94.0557C757.644 94.0423 758.047 93.6391 758.047 93.1329V89.0967C758.047 88.586 757.631 88.1694 757.121 88.1694H757.076C748.12 88.1694 745.235 91.0588 745.235 98.2846V105.457C745.235 112.682 748.12 115.522 757.076 115.522H771.159C780.115 115.522 783 112.682 783 105.457V98.2846C782.991 91.0633 780.106 88.1739 771.15 88.1739Z" fill="#F3F3F3"/>
<path d="M766.735 88.1739H761.483C760.982 88.1739 760.575 88.5816 760.575 89.0833V103.611C760.575 104.113 760.982 104.52 761.483 104.52H766.735C767.236 104.52 767.643 104.113 767.643 103.611V89.0788C767.643 88.5816 767.236 88.1739 766.735 88.1739Z" fill="#F3F3F3"/>
</svg>
